<?xml version="1.0" encoding="UTF-8"?>
<svg width="32" height="32" viewBox="0 0 32 32" fill="none" xmlns="http://www.w3.org/2000/svg">
    <!-- Background -->
    <rect width="32" height="32" rx="8" fill="#2f2f2f"/>
    
    <!-- Gamepad body -->
    <path d="M6 12C6 10.8954 6.89543 10 8 10H24C25.1046 10 26 10.8954 26 12V20C26 21.1046 25.1046 22 24 22H8C6.89543 22 6 21.1046 6 20V12Z" fill="#4ecdc4"/>
    
    <!-- D-pad -->
    <rect x="9" y="14" width="2" height="4" rx="0.5" fill="#ff6b6b"/>
    <rect x="8" y="15" width="4" height="2" rx="0.5" fill="#ff6b6b"/>
    
    <!-- Action buttons -->
    <circle cx="20" cy="16" r="1.5" fill="#ff6b6b"/>
    <circle cx="22" cy="14" r="1.5" fill="#ff6b6b"/>
    <circle cx="22" cy="18" r="1.5" fill="#ff6b6b"/>
    <circle cx="24" cy="16" r="1.5" fill="#ff6b6b"/>
    
    <!-- Start/Select buttons -->
    <rect x="14" y="15" width="4" height="2" rx="1" fill="#ff6b6b"/>
</svg>
